<?xml version="1.0" encoding="utf-8"?>
<!-- Generator: Adobe Illustrator 27.5.0, SVG Export Plug-In . SVG Version: 6.00 Build 0)  -->
<svg version="1.1" id="Layer_1" xmlns="http://www.w3.org/2000/svg" xmlns:xlink="http://www.w3.org/1999/xlink" x="0px" y="0px"
	 viewBox="0 0 800 800" style="enable-background:new 0 0 800 800;" xml:space="preserve">
<style type="text/css">
	.st0{fill:#9BDBF5;}
	.st1{fill:#5ECAE7;}
	.st2{fill:#98D8E6;}
	.st3{fill:#C7E9F2;}
	.st4{fill:#C7E9F0;}
</style>
<path class="st0" d="M24,512.6c-9.9-104.4,49.6-187.2,100-220.6c51.6-34.1,75.6-39,87.2-45.6c53.6-30.1,91.2-97.3,163.2-146.9
	c81.9-56.4,194-64.8,262.8-27.1c62.7,34.4,126.9,109.2,109.8,258.3S355.3,725.2,291.1,728.7S39,670.4,24,512.6L24,512.6z"/>
<path class="st1" d="M441.5,479.3c-29.4,17.3-140,126.8-266.9,123.8S28.2,538.8,28.2,538.8S46.4,645.7,133.9,709
	c99,71.6,204,43.4,234.6,36.6c45.4-10.2,85.6-31.1,125.8-52.9s183.1-90.6,239.2-198.9c61.9-119.5,47.2-215.2,16.2-284.9
	c-32.8-73.7-64.7-100.8-64.7-100.8s29.8,154.3-33.2,240.2C562.4,470.1,470.9,462.1,441.5,479.3L441.5,479.3z"/>
<path class="st2" d="M395.2,607.3c0.4,7.9,28.4,7.2,48.8,3.9c21.6-3.5,39.4-3.8,42.4-12.1c3-8.3-29.9-37.2-49.2-36.2
	C425,563.6,394.6,595.8,395.2,607.3L395.2,607.3z"/>
<path class="st2" d="M541.2,622.5c4.2,6.1,21.6-3.2,27.9-11.5c6.4-8.3,13.6-24.4,7.8-27.9s-22.2-3.5-30.3,6.5
	C538.6,599.6,537,616.4,541.2,622.5z"/>
<path class="st2" d="M732.8,239.2c-6.8-12-19,16.4-19.6,26.2c-0.6,9.8,6.8,15.6,15,17.3C736.3,284.4,754.7,277.8,732.8,239.2
	L732.8,239.2z"/>
<path class="st2" d="M181.8,669.2c-5.5,9.3,3.6,16.1,12.8,22.3c7.2,4.9,25,7.6,28.5,2.1c3.6-5.5-3.4-12.9-16.7-24.1
	C197.3,662,187.3,659.9,181.8,669.2L181.8,669.2z"/>
<path class="st3" d="M108.8,526.5c-7.8,5.4-1.5,29.6-0.4,34.2s32.2,6.2,36.8-0.9s-5.1-17.4-12-24.6
	C126.2,528.1,116.6,521.1,108.8,526.5z"/>
<path class="st3" d="M164.4,470.3c9.6,13.1,27.1-2.6,29.9-14.3c3-12.6-7.6-20.8-19.5-13.3C165.2,448.6,158.8,462.8,164.4,470.3z"/>
<path class="st3" d="M288.9,221.6c-12.5-5.2-17.2,5.7-21.9,16.9s-19.8,31.4-10.3,34.2s31.9,1.5,37.4-7.6
	C299.6,256,301.4,226.9,288.9,221.6L288.9,221.6z"/>
<path class="st4" d="M75.4,496.8c13.8,6.2,35.1-23.1,44.9-37.1c14.4-20.7,36.2-46.8,87.1-78.4c69.9-43.2,142.8-32.4,180.3-64.9
	s59.2-97.1,87.9-129.1c52.3-58.5,106.6-18.6,114.2-46.9S558.7,87.9,512.9,88c-45.7,0.1-97.9,16.9-145.4,93.8
	s-59.3,100.3-103.4,114.2c-44.1,13.9-98.8,32.3-151.6,91C83.3,419.6,52.5,486.4,75.4,496.8L75.4,496.8z"/>
<path class="st3" d="M517.3,211.4c2.7,20,30.2,30.9,46.4,31.1c15.2,0.2,26.1-9.7,25.9-19.8c-0.2-12.1-19.8-17.6-27.5-20.6
	c-15.1-5.8-18.6-18.4-32.6-13.9C516.7,192.3,516.9,208.3,517.3,211.4L517.3,211.4z"/>
</svg>
